<svg xmlns="http://www.w3.org/2000/svg" viewBox="0 0 1694.6667 392" height="392" width="1694.667"><defs><clipPath id="a"><path d="M1071.02 1109.09h319.01v655.66l248.66 248.87-4.6 6.6c366.59 32.98 661.26-408.8 458.02-833.76-70.81-111.87-161.32-203.054-279.51-265.183-330.21-183.324-771.74-53.988-966.1 278.173-55.473 111.43-86.547 236.25-86.547 368.07 0 296.96 185.461 587.83 429.627 740.59 143.19 89.59 321.81 125.7 460.07 125.7 327.88 0 536.03-173.36 691.55-330.52-196.7 266.46-512.9 439.32-869.52 439.32-596.559 0-1080.141-483.59-1080.141-1080.13 0-596.558 483.582-1080.14 1080.141-1080.14 429.05 0 799.68 250.137 973.96 612.558 133.61 304.652 85.18 673.252-117.09 942.192-218.6 256.03-507.07 360.78-861.41 322.89l-.43.61-.73-.73h-.01v-.02l-394.95-395.56z" clip-rule="evenodd"/></clipPath><linearGradient id="b" gradientTransform="matrix(10 0 0 10 -490 -3210)" gradientUnits="userSpaceOnUse" y2="581.197" x2="289.381" y1="431.909" x1="188.003"><stop offset="0" stop-color="#c23b37"/><stop offset="1" stop-color="#fff"/></linearGradient></defs><g clip-path="url(#a)" transform="matrix(.13333 0 0 -.13333 0 392)"><path d="M1071.02 1109.09h319.01v655.66l248.66 248.87-4.6 6.6c366.59 32.98 661.26-408.8 458.02-833.76-70.81-111.87-161.32-203.054-279.51-265.183-330.21-183.324-771.74-53.988-966.1 278.173-55.473 111.43-86.547 236.25-86.547 368.07 0 296.96 185.461 587.83 429.627 740.59 143.19 89.59 321.81 125.7 460.07 125.7 327.88 0 536.03-173.36 691.55-330.52-196.7 266.46-512.9 439.32-869.52 439.32-596.559 0-1080.141-483.59-1080.141-1080.13 0-596.558 483.582-1080.14 1080.141-1080.14 429.05 0 799.68 250.137 973.96 612.558 133.61 304.652 85.18 673.252-117.09 942.192-218.6 256.03-507.07 360.78-861.41 322.89l-.43.61-.73-.73h-.01v-.02l-394.95-395.56v-755.19" fill="url(#b)"/></g><path d="M196.705 28.34c-92.66 0-168.041 75.381-168.041 168.039 0 92.656 75.381 168.037 168.041 168.037 92.658 0 168.038-75.381 168.038-168.037 0-92.658-75.38-168.039-168.038-168.039zm0 363.623C88.855 391.96 1.12 304.224 1.12 196.379 1.12 88.532 88.856.793 196.705.793c107.847 0 195.583 87.739 195.583 195.586 0 107.845-87.736 195.584-195.583 195.584" fill="#2d4e6a" fill-rule="evenodd"/><path d="M470.833 298.081V94.672h37.672v83.937h100.248V94.672h37.72v203.41h-37.72v-86.753H508.505v86.752h-37.672" fill="#2d4e6a"/><path d="M801.607 148.752v149.33H772.14l-4.515-19.08c-17.185 12.72-35.39 19.08-54.614 19.08-30.536 0-45.828-18.06-45.828-54.178v-95.152h37.72v94.132c0 16.506 7.185 24.759 21.604 24.759 12.233 0 24.709-4.903 37.38-14.662V148.752h37.72m161.283 0v149.33h-29.469l-4.514-19.08c-17.186 12.72-35.39 19.08-54.614 19.08-30.536 0-45.828-18.06-45.828-54.178v-95.152h37.72v94.132c0 16.506 7.186 24.759 21.603 24.759 12.235 0 24.71-4.903 37.381-14.662V148.752h37.722m26.856 149.329V148.752h29.177l4.708 19.03c13.06-12.67 26.895-19.03 41.508-19.03v30.439c-14.03 0-26.604 5.825-37.672 17.477v101.413h-37.721m88.026-7.136v-31.264c16.603 6.651 35.778 9.952 57.479 9.952 16.215 0 24.321-5.194 24.321-15.632 0-9.952-5.485-14.952-16.36-14.952h-27.04c-30.342 0-45.488-14.904-45.488-44.809 0-31.264 22.136-46.895 66.411-46.895 18.788 0 36.459 2.816 53.061 8.495v31.312c-16.602-6.65-34.613-9.95-54.08-9.95-20.389 0-30.536 5.193-30.536 15.631 0 9.951 5.923 14.952 17.768 14.952h24.176c33.158 0 49.76 14.903 49.76 44.76 0 31.312-21.117 46.944-63.401 46.944-20.777 0-39.468-2.816-56.07-8.544m134.969-166.369h27.914l5.68 24.176h37.526v29.857h-33.399v68.692c0 13.933 6.02 20.924 18.059 20.924h15.34v29.856h-33.546c-25.049 0-37.574-13.399-37.574-40.245v-133.26m222.457 24.176v149.33h-29.48l-4.507-19.08c-17.186 12.72-35.386 19.08-54.613 19.08-30.54 0-45.83-18.06-45.83-54.178v-95.152h37.723v94.132c0 16.506 7.187 24.759 21.6 24.759 12.227 0 24.707-4.903 37.374-14.662V148.752h37.733m26.853 149.329V148.752h29.174l4.706 21.896c14.28-14.613 30.587-21.896 48.894-21.896 35.386 0 53.053 18.4 53.053 55.15v94.18h-37.667v-94.18c0-16.458-8.2-24.711-24.613-24.711-12.24 0-24.173 4.854-35.827 14.661v104.23h-37.72M1622.6 124.576h27.92l5.68 24.176h37.52v29.857h-33.4v68.692c0 13.933 6.027 20.924 18.067 20.924h15.333v29.856h-33.547c-25.04 0-37.573-13.399-37.573-40.245v-133.26" fill="#2e4768"/></svg>